# xmcd
#
# Track frame offsets: 
#        150
#        756
#        2145
#        13914
#        29659
#        32355
#        39235
#        41173
#        43663
#        46968
#        75423
#        92504
#        101921
#        123629
#        137125
#        149461
#        150707
#        163176
#        174972
#        186285
#        197947
#        223145
#        238886
#        242140
#        255137
#        267340
#        281680
#
# Disc length: 3848 seconds
#
# Revision: 0
# Processed by: cddbd v1.5.2PL0 Copyright (c) Steve Scherf et al.
# Submitted via: ExactAudioCopy v0.95b4
#
DISCID=760f061b
DTITLE=The Beatles  - AB  Road - Complete Purple Chick Set v1.1 Jan.09
DTITLE=Various Artist - D1  FLAC
DYEAR=1900
DGENRE=
TTITLE0=Roll Announcement
TTITLE1=Slate Announcement
TTITLE2=Dialogue
TTITLE3=Another Day 9.01
TTITLE4=Unknown 9.02
TTITLE5=Instrumental 9.03
TTITLE6=The Palace Of The King Of The Birds 9.04
TTITLE7=The Palace Of The King Of The Birds 9.05
TTITLE8=Let It Be 9.06
TTITLE9=The Long And Winding Road 9.07
TTITLE10=Let It Be 9.08
TTITLE11=Her Majesty 9.09
TTITLE12=Golden Slumbers 9.10
TTITLE13=Carry That Weight 9.11
TTITLE14=The Long And Winding Road 9.12a
TTITLE15=The Long And Winding Road 9.12b
TTITLE16=The Long And Winding Road 9.13
TTITLE17=The Long And Winding Road 9.14
TTITLE18=Oh! Darling 9.15
TTITLE19=Instrumental 9.16
TTITLE20=Instrumental 9.17
TTITLE21=Instrumental 9.18
TTITLE22=Instrumental 9.19
TTITLE23=For You Blue 9.20
TTITLE24=For You Blue 9.21
TTITLE25=For You Blue 9.22
TTITLE26=For You Blue 9.23
EXTD=
EXTT0=
EXTT1=
EXTT2=
EXTT3=
EXTT4=
EXTT5=
EXTT6=
EXTT7=
EXTT8=
EXTT9=
EXTT10=
EXTT11=
EXTT12=
EXTT13=
EXTT14=
EXTT15=
EXTT16=
EXTT17=
EXTT18=
EXTT19=
EXTT20=
EXTT21=
EXTT22=
EXTT23=
EXTT24=
EXTT25=
EXTT26=
PLAYORDER=
